HIERARCHY
ROOT hip
{
	OFFSET 0.000000 0.000000 0.000000 
	CHANNELS 6 Xposition Yposition Zposition Xrotation Zrotation Yrotation
	JOINT abdomen
	{
		OFFSET 0.000000 3.402643 0.000000 
		CHANNELS 3 Xrotation Zrotation Yrotation
		JOINT chest
		{
			OFFSET 0.000000 8.438565 -0.680529 
			CHANNELS 3 Xrotation Zrotation Yrotation
			JOINT neck
			{
				OFFSET 0.000000 10.207942 -0.272212 
				CHANNELS 3 Xrotation Zrotation Yrotation
				JOINT head
				{
					OFFSET 0.000000 3.130431 0.000000 
					CHANNELS 3 Xrotation Zrotation Yrotation
					End Site
					{
						OFFSET 0.000000 3.130435 0.000000 
					}
				}
			}
			JOINT lCollar
			{
				OFFSET 3.470700 6.669187 -0.816635 
				CHANNELS 3 Yrotation Zrotation Xrotation
				JOINT lShldr
				{
					OFFSET 3.198488 0.000000 0.000000 
					CHANNELS 3 Zrotation Yrotation Xrotation
					JOINT lForeArm
					{
						OFFSET 10.139888 0.000000 0.000000 
						CHANNELS 3 Yrotation Zrotation Xrotation
						JOINT lHand
						{
							OFFSET 8.370511 0.000000 0.000000 
							CHANNELS 3 Zrotation Yrotation Xrotation
							End Site
							{
								OFFSET 4.083176 0.000000 0.000000 
							}
						}
					}
				}
			}
			JOINT rCollar
			{
				OFFSET -3.470700 6.669187 -0.816635 
				CHANNELS 3 Yrotation Zrotation Xrotation
				JOINT rShldr
				{
					OFFSET -3.198488 0.000000 0.000000 
					CHANNELS 3 Zrotation Yrotation Xrotation
					JOINT rForeArm
					{
						OFFSET -10.139888 0.000000 0.000000 
						CHANNELS 3 Yrotation Zrotation Xrotation
						JOINT rHand
						{
							OFFSET -8.370511 0.000000 0.000000 
							CHANNELS 3 Zrotation Yrotation Xrotation
							End Site
							{
								OFFSET -4.083176 0.000000 0.000000 
							}
						}
					}
				}
			}
		}
	}
	JOINT lThigh
	{
		OFFSET 5.308129 -1.633274 1.361059 
		CHANNELS 3 Xrotation Zrotation Yrotation
		JOINT lShin
		{
			OFFSET -2.041588 -20.007561 0.000000 
			CHANNELS 3 Xrotation Zrotation Yrotation
			JOINT lFoot
			{
				OFFSET 0.000000 -19.190928 -1.224953 
				CHANNELS 3 Xrotation Yrotation Zrotation
				End Site
				{
					OFFSET 0.000000 -2.449906 4.627600 
				}
			}
		}
	}
	JOINT rThigh
	{
		OFFSET -5.308129 -1.633274 1.361059 
		CHANNELS 3 Xrotation Zrotation Yrotation
		JOINT rShin
		{
			OFFSET 2.041588 -20.007561 0.000000 
			CHANNELS 3 Xrotation Zrotation Yrotation
			JOINT rFoot
			{
				OFFSET 0.000000 -19.190928 -1.224953 
				CHANNELS 3 Xrotation Yrotation Zrotation
				End Site
				{
					OFFSET 0.000000 -2.449906 4.627600 
				}
			}
		}
	}
}
MOTION
Frames: 16
Frame Time: 0.033333
0.520442 51.797413 0.947344 -4.736328 -14.550780 108.708488 33.847790 -11.737754 -6.335380 -22.460939 8.535157 1.123047 51.063168 8.107644 2.471410 -65.957031 -20.087891 55.595707 2.000000 -2.000000 0.000000 -97.382805 1.240234 -22.060337 -71.475471 -0.801548 -2.727421 -51.137939 20.293150 -96.979332 -2.000000 2.000000 0.000000 82.792969 -16.992188 -3.528243 90.778938 0.093092 -2.993434 -14.695569 -58.562096 -11.793967 -26.910212 16.247829 -2.363714 12.601240 -5.095570 -1.348812 11.151429 14.008392 -25.791428 -25.884211 -23.079355 -14.837748 32.172836 4.286546 2.799657 20.921265 -0.329140 21.848318 
0.884070 51.773773 1.752495 -3.818359 -13.701171 107.722298 35.455482 -12.368670 -6.270141 -22.275391 8.349609 1.142578 51.063168 8.107644 2.471410 -67.109375 -18.154297 53.463757 2.000000 -2.000000 0.000000 -95.458984 0.117188 -22.451160 -69.902336 -0.868096 -2.694078 -51.724232 20.682837 -98.579468 -2.000000 2.000000 0.000000 82.792969 -14.882812 -4.045476 90.075539 0.102277 -2.983125 -14.171600 -58.925346 -11.735045 -26.141312 16.298023 -2.247006 12.600979 -5.095482 -1.358542 11.455272 13.721446 -26.943096 -24.858847 -22.395809 -14.433863 32.173515 4.286620 2.780268 16.365250 -3.486561 19.925034 
1.471740 51.734383 2.258759 -2.705078 -12.666015 106.914063 35.671322 -12.411067 -6.546727 -22.099609 8.515625 1.015625 51.063168 8.107644 2.471410 -67.089844 -17.119139 52.128906 2.000000 -2.000000 0.000000 -95.058594 -0.283203 -23.417999 -68.143112 -0.933512 -2.641380 -52.575775 20.977976 -100.405609 -2.000000 2.000000 0.000000 82.568359 -14.199219 -4.035598 89.029602 0.354292 -3.281506 -12.490686 -59.556202 -12.641947 -24.735672 16.376558 -1.608301 12.950752 -5.143564 -1.382583 11.116554 13.576068 -27.552036 -23.461735 -22.053043 -13.528812 31.995533 4.393919 2.163667 12.568454 -5.846831 18.469601 
2.279426 51.687111 2.558491 -1.630859 -11.787109 105.966797 34.980709 -12.131111 -6.708313 -22.080078 9.042969 1.083985 51.063168 8.107644 2.471410 -65.781250 -16.982420 51.152344 2.000000 -2.000000 0.000000 -95.673828 -1.289063 -25.244358 -66.393379 -0.988612 -2.579505 -53.403732 22.367685 -101.613411 -2.000000 2.000000 0.000000 82.070313 -14.501953 -2.763672 87.086151 0.217011 -2.937376 -10.465607 -60.254658 -14.343974 -22.750746 16.345482 -0.977563 12.968792 -5.097755 -1.370138 10.973462 13.537811 -28.110014 -21.552153 -21.707964 -13.404977 31.822186 4.306087 2.592032 9.267358 -7.148057 16.715904 
3.067808 51.679241 2.828043 -0.722656 -10.722656 105.048828 33.947647 -11.530223 -7.054076 -21.875000 9.560547 1.181641 51.063168 8.107644 2.471410 -64.277344 -16.865231 50.107422 2.000000 -2.000000 0.000000 -96.474609 -4.794922 -28.505857 -64.291931 -1.395246 -2.506958 -53.931969 25.024313 -102.540787 -2.000000 2.000000 0.000000 81.386719 -14.599609 -1.083984 83.930168 0.359863 -2.870444 -7.266144 -61.290081 -16.977331 -20.627897 16.488821 0.101351 13.311768 -5.133898 -1.392354 10.258137 13.287281 -28.586117 -19.715899 -21.629105 -12.707804 31.647293 4.315880 2.755156 7.004584 -8.590158 14.873109 
3.830583 51.702873 3.101587 0.351563 -9.667959 104.119446 32.944279 -11.073109 -7.518902 -21.679689 10.087892 1.289062 51.063168 8.107644 2.471410 -62.617188 -16.923828 49.430756 2.000000 -2.000000 0.000000 -96.875000 -9.501954 -32.189110 -61.828205 -1.457824 -2.405534 -54.721256 28.261671 -103.723206 -2.000000 2.000000 0.000000 80.820313 -14.140625 1.035156 79.533646 0.541145 -2.791510 -3.928498 -62.766243 -20.332882 -18.098705 16.614914 0.946516 12.424354 -5.117151 -1.316693 11.606530 12.794923 -29.306023 -17.848188 -21.497356 -12.394396 31.285210 4.335228 2.585374 5.288749 -9.796691 12.732982 
4.612313 51.742264 3.169154 1.416016 -8.613281 103.115234 31.744585 -10.459763 -7.871649 -21.650393 10.771485 1.386719 51.063168 8.107644 2.471410 -60.947266 -16.962889 48.535156 2.000000 -2.000000 0.000000 -96.523438 -14.902343 -36.164619 -59.541519 -1.581728 -2.349435 -55.640465 31.868427 -104.173302 -2.000000 2.000000 0.000000 80.839844 -13.769530 2.253537 75.146332 0.711543 -2.693529 1.266404 -63.974789 -25.455662 -15.448547 16.503139 1.758486 11.898822 -5.183742 -1.249299 12.201993 12.750477 -30.267792 -15.878261 -21.648861 -12.383137 31.110487 4.340163 2.756906 3.813769 -9.603002 12.028944 
5.363226 51.821041 3.188676 2.294922 -7.382812 102.333984 30.396524 -9.905314 -8.486726 -21.445314 11.474611 1.699219 51.063168 8.107644 2.471410 -59.101566 -17.021484 47.441406 2.000000 -2.000000 0.000000 -95.468750 -20.761717 -39.697269 -58.307774 -1.447612 -2.229868 -55.794270 34.253571 -102.974747 -2.000000 2.000000 0.000000 80.908203 -13.203125 2.519532 71.104073 1.113524 -2.709514 6.679438 -65.451630 -30.271503 -12.789570 16.459972 3.170434 11.197335 -5.196124 -1.181680 13.339680 12.215684 -30.154135 -13.795949 -22.042536 -12.512713 30.581270 4.374225 2.499621 3.350683 -9.108096 11.068465 
6.070943 51.931332 3.190689 3.349610 -6.318359 101.375877 29.186287 -9.285337 -8.859210 -21.240236 12.158203 1.835938 51.063168 8.107644 2.471410 -57.275391 -17.226561 46.572266 2.000000 -2.000000 0.000000 -95.419922 -28.720703 -41.215630 -57.966183 -1.487176 -2.237339 -55.106159 36.146309 -98.476509 -2.000000 2.000000 0.000000 81.376953 -12.421875 1.220703 67.430298 1.334362 -2.637845 12.903903 -67.357964 -35.773106 -9.723640 16.234335 4.106530 9.607335 -5.206543 -1.058881 15.457460 12.340715 -30.801821 -11.629774 -22.524424 -13.237965 29.506458 3.973819 2.616495 3.160960 -8.227641 10.087812 
6.694800 52.057384 3.196706 4.228516 -5.263671 100.664063 27.817394 -8.807162 -9.328547 -21.201174 12.675782 1.923828 51.063168 8.107644 2.471410 -55.253906 -17.431639 45.263676 2.000000 -2.000000 0.000000 -94.482422 -37.812500 -42.177738 -58.670109 -1.488879 -2.266575 -53.962040 36.871799 -91.622612 -2.000000 2.000000 0.000000 82.578125 -11.386719 -0.665989 63.723518 1.283473 -2.435452 20.446796 -69.188087 -42.144516 -6.705902 15.674531 5.380935 7.833053 -5.219573 -0.941012 16.969156 11.841822 -31.138109 -9.882554 -22.869249 -12.861819 29.725130 4.418516 2.479868 3.055083 -7.841995 9.096784 
7.276858 52.214947 3.154423 5.107422 -4.394531 99.941406 26.625313 -8.177216 -9.729864 -20.996094 13.359374 1.896788 51.063168 8.107644 2.471410 -53.417969 -17.431639 43.662109 2.000000 -2.000000 0.000000 -88.330078 -44.101563 -45.631790 -60.947979 -1.445240 -2.357374 -51.974907 37.312202 -84.353912 -2.000000 2.000000 0.000000 83.271484 -10.107423 -3.263433 60.920151 1.536384 -2.411005 29.743551 -71.000824 -50.236412 -3.710635 15.524732 6.641534 6.079114 -5.241001 -0.785033 18.746677 11.528895 -31.315027 -8.289916 -23.566238 -12.608850 29.348547 4.427692 2.451988 3.674904 -7.097198 9.148228 
7.825114 52.341000 3.130517 5.986328 -3.330078 99.286537 25.413872 -7.607145 -9.999537 -20.966797 13.886719 1.972657 51.063168 8.107644 2.471410 -51.337891 -17.070309 41.621101 2.000000 -2.000000 0.000000 -75.742188 -45.771484 -51.201172 -64.642769 -1.335052 -2.481124 -50.473660 37.034508 -77.968018 -2.000000 2.000000 0.000000 83.496094 -8.740234 -5.820313 59.855564 1.252525 -2.407911 39.659767 -71.310127 -59.586426 -0.986546 14.800333 7.752579 4.522553 -5.255999 -0.596916 20.096058 11.161588 -30.950920 -6.747997 -23.744703 -11.987185 29.009863 4.452374 2.410786 4.210191 -6.642134 9.452731 
8.359929 52.435535 3.095245 6.679687 -2.470703 98.818359 24.378494 -7.033699 -10.278978 -20.927736 14.404297 2.050781 51.063168 8.107644 2.471410 -49.638672 -16.503906 39.384766 2.000000 -2.000000 0.000000 -60.527348 -44.804684 -57.265625 -69.383362 -1.168059 -2.637514 -49.437283 35.723568 -71.495071 -2.000000 2.000000 0.000000 82.724609 -7.382813 -8.603518 61.266621 1.067172 -2.584894 49.618900 -70.346977 -70.258217 1.532351 14.169579 8.710878 3.098889 -5.248204 -0.467606 21.288427 10.783124 -30.960329 -5.224471 -24.379320 -11.584527 28.672655 4.458044 2.394890 4.124470 -6.465947 9.943595 
8.879545 52.482807 3.037468 7.373046 -1.582031 98.378906 23.319719 -6.642330 -10.265070 -21.093750 14.755858 1.884766 51.063168 8.107644 2.471410 -48.330082 -16.240232 37.119141 2.000000 -2.000000 0.000000 -44.960938 -40.546875 -63.199715 -74.475533 -0.981556 -2.795205 -47.469429 35.163048 -65.046135 -2.000000 2.000000 0.000000 81.376953 -5.595703 -11.669923 64.246658 0.894515 -2.643801 58.547672 -68.531555 -80.265007 3.484424 13.717620 9.601294 2.251191 -5.081867 -0.366957 22.165115 10.655223 -30.640310 -3.682228 -24.722399 -10.987895 28.512915 4.468938 2.383998 3.698949 -6.124528 10.266845 
9.392520 52.459167 2.941515 8.085938 -0.878906 98.115234 22.594656 -6.323200 -10.114076 -21.279297 14.941406 1.875000 51.063168 8.107644 2.471410 -47.792973 -16.445309 35.019531 2.000000 -2.000000 0.000000 -33.183594 -33.554688 -67.856956 -79.211876 -0.630018 -2.805819 -43.084064 36.466118 -57.398643 -2.000000 2.000000 0.000000 79.277344 -3.945313 -15.234375 68.461555 0.633407 -2.864399 64.421158 -66.167358 -87.541756 5.280434 12.915257 10.398842 2.064835 -4.875296 -0.390740 21.542938 10.528699 -30.512262 -2.276031 -25.415533 -10.756911 28.512918 4.468925 2.383995 2.672101 -6.096278 10.578550 
9.848528 52.317371 2.768286 8.789063 -0.175781 97.861298 22.021656 -5.918513 -9.745092 -21.445314 14.951173 1.650391 51.063168 8.107644 2.471410 -48.017578 -16.962889 33.115238 2.000000 -2.000000 0.000000 -25.478514 -22.167971 -72.171654 -83.784470 -0.449300 -2.894529 -31.115602 41.097157 -46.034801 -2.000000 2.000000 0.000000 76.787109 -2.578125 -19.853951 73.361641 0.434153 -3.140008 65.181465 -65.106590 -89.822212 6.346103 12.136994 10.787490 2.239728 -4.883158 -0.209800 20.185064 11.083578 -29.478752 -1.231187 -26.099373 -10.650857 28.314135 4.038642 2.569318 1.435726 -5.985625 11.294767 
